<svg xmlns="http://www.w3.org/2000/svg" viewBox="0 0 512 512"><defs><linearGradient id="d" x1="0" x2="1" y1="0" y2="0" gradientTransform="translate(117.099 254.198) scale(112.45639)" gradientUnits="userSpaceOnUse" spreadMethod="pad"><stop offset="0" stop-color="#8a8dcb"/><stop offset="0" stop-color="#8a8dcb"/><stop offset=".754" stop-color="#8e4eac"/><stop offset="1" stop-color="#593a65"/></linearGradient><linearGradient id="a" x1="0" x2="1" y1="0" y2="0" gradientTransform="rotate(40.414 -83.087 363.392) scale(106.39863)" gradientUnits="userSpaceOnUse" spreadMethod="pad"><stop offset="0" stop-color="#7075c1"/><stop offset="0" stop-color="#7075c1"/><stop offset=".754" stop-color="#772f98"/><stop offset="1" stop-color="#33163b"/></linearGradient><linearGradient id="b" x1="0" x2="1" y1="0" y2="0" gradientTransform="rotate(-43.44 563.343 -23.772) scale(129.61147)" gradientUnits="userSpaceOnUse" spreadMethod="pad"><stop offset="0" stop-color="#7075c1"/><stop offset="0" stop-color="#7075c1"/><stop offset=".754" stop-color="#772f98"/><stop offset="1" stop-color="#33163b"/></linearGradient><linearGradient id="c" x1="0" x2="1" y1="0" y2="0" gradientTransform="rotate(-126.73 283.597 63.744) scale(43.81144)" gradientUnits="userSpaceOnUse" spreadMethod="pad"><stop offset="0" stop-color="#7075c1"/><stop offset=".289" stop-color="#7075c1"/><stop offset=".754" stop-color="#772f98"/><stop offset="1" stop-color="#33163b"/></linearGradient></defs><path fill="#171717" d="M512 256a256 256 0 1 1-512 0 256 256 0 1 1 512 0z"/><path fill="#fff" d="M496.275 256a240.275 240.275 0 0 1-480.55 0 240.275 240.275 0 1 1 480.55 0z"/><path fill="url(#a)" d="M191.218 197.311c18.113-36.23 54.348-108.695 54.348-108.695l68.588 91.312-20.788 2.933-44.343-58.755-35.291 70.063"/><path fill="url(#b)" d="m206.921 423.384-49.749-99.463 6.887-13.739 6.57-.929 39.47 78.908 50.306-67.054 26.01-3.68"/><path fill="url(#c)" d="m392.48 300.648-21.024 2.973 15.02 20.184 21.018-2.974"/><path fill="#171717" d="M200.02 315.279c-.255-.477-.652-.869-1.192-1.18a7.48 7.48 0 0 0-2.055-.71 30.683 30.683 0 0 0-1.34-.18c-.48-.057-.996-.1-1.544-.132-.5-.022-.957-.05-1.37-.083a15.814 15.814 0 0 1-1.1-.125c-.32-.047-.602-.1-.85-.157a3.444 3.444 0 0 1-.645-.212c-.332-.139-.567-.323-.708-.55a1.425 1.425 0 0 1-.186-.834c.039-.58.378-1.093 1.012-1.541.583-.486 1.438-.81 2.562-.969.485-.067.966-.102 1.44-.1.473 0 .943.058 1.408.16.46.076.922.185 1.384.329.462.143.927.322 1.391.535l2.108-2.51a10.845 10.845 0 0 0-1.619-.677c-.56-.185-1.142-.32-1.743-.405-.605-.1-1.25-.144-1.939-.132-.69.012-1.43.075-2.219.187a13.52 13.52 0 0 0-2.898.738c-.91.362-1.691.807-2.346 1.334a7.256 7.256 0 0 0-1.585 1.784 4.231 4.231 0 0 0-.66 2.07c-.06.785.063 1.428.366 1.927.24.478.66.875 1.261 1.193.524.298 1.232.516 2.12.653a25.842 25.842 0 0 0 2.945.258l1.34.1c.392.031.738.07 1.04.12.604.1 1.072.22 1.401.36.35.168.585.35.706.55.092.205.137.47.137.796-.047.658-.417 1.223-1.108 1.694-.692.486-1.608.808-2.75.97-1.337.19-2.52.172-3.544-.055a10.685 10.685 0 0 1-3.008-1.201l-2.348 2.473c.609.363 1.25.66 1.918.891.67.232 1.369.412 2.1.54 1.442.213 2.985.204 4.625-.028.55-.079 1.078-.177 1.59-.295a9.53 9.53 0 0 0 1.467-.465c.946-.351 1.76-.793 2.444-1.325a6.205 6.205 0 0 0 1.649-1.816 4.63 4.63 0 0 0 .665-2.21 4.163 4.163 0 0 0-.035-.973 2.355 2.355 0 0 0-.286-.798M217.983 305.447l6.684-.95-.844 13.896 3.74-.531.843-13.896 6.684-.948.174-2.7-17.107 2.428-.174 2.7M266.906 305.345c-.106 1.536-.649 2.76-1.618 3.675-1.017.934-2.337 1.517-3.964 1.747-1.642.233-2.924.008-3.845-.687-.884-.664-1.284-1.78-1.196-3.343l.61-9.488-3.695.524-.617 9.604c-.06 1.204.085 2.231.44 3.08.351.85.908 1.539 1.664 2.068.723.501 1.63.829 2.723.985 1.059.144 2.29.117 3.69-.08 1.398-.199 2.646-.523 3.746-.975a10.225 10.225 0 0 0 2.954-1.815 8.51 8.51 0 0 0 1.979-2.609c.476-1.011.753-2.13.828-3.35l.61-9.464-3.694.525-.615 9.603M304.472 299.921a6.891 6.891 0 0 1-.444 1.133 8.055 8.055 0 0 1-1.6 1.996c-.647.588-1.436 1.089-2.371 1.5-.92.395-1.93.67-3.023.826l-4.152.588.677-11.29 4.152-.588c1.094-.156 2.088-.156 2.978 0 .891.153 1.636.435 2.238.846.57.416 1.026.948 1.367 1.598.292.64.418 1.368.378 2.18a5.047 5.047 0 0 1-.2 1.214zm2.582-6.241a5.155 5.155 0 0 0-1.262-1.019c-.955-.61-2.1-1.03-3.436-1.259-1.362-.21-2.851-.199-4.463.03l-7.845 1.113-1.019 16.596 7.845-1.116c1.643-.232 3.165-.657 4.566-1.274.7-.317 1.352-.663 1.96-1.037.606-.37 1.162-.78 1.674-1.225.527-.446.992-.917 1.394-1.408.403-.491.762-1.007 1.073-1.548.615-1.127.957-2.268 1.026-3.426.07-1.143-.142-2.19-.632-3.145a6.01 6.01 0 0 0-.881-1.283M327.076 303.74l3.696-.523 1.064-16.603-3.694.524-1.066 16.602M368.394 289.687c-.047.767-.264 1.55-.654 2.35-.391.8-.925 1.503-1.597 2.11a8.132 8.132 0 0 1-2.422 1.636c-.904.4-1.835.669-2.794.804a9.09 9.09 0 0 1-2.667-.017 4.92 4.92 0 0 1-2.364-1.014 4.304 4.304 0 0 1-1.317-1.64c-.32-.675-.455-1.436-.403-2.28.057-.8.278-1.591.663-2.374a7.182 7.182 0 0 1 1.584-2.11 8.24 8.24 0 0 1 2.422-1.636 10.562 10.562 0 0 1 2.794-.804 8.364 8.364 0 0 1 2.644.032c.853.15 1.648.485 2.387.999a4.142 4.142 0 0 1 1.33 1.65c.312.685.445 1.45.394 2.294zm3.295-3.842a6.106 6.106 0 0 0-2.194-2.504 9.011 9.011 0 0 0-3.23-1.287c-1.28-.268-2.749-.285-4.405-.05a15.865 15.865 0 0 0-4.491 1.314c-.596.285-1.18.612-1.758.98-.577.37-1.124.781-1.65 1.237-.526.454-1.017.952-1.474 1.5a10.07 10.07 0 0 0-1.183 1.75 8.755 8.755 0 0 0-1.02 3.471c-.067 1.158.13 2.224.593 3.197a6.1 6.1 0 0 0 1.675 2.125c.7.56 1.487.99 2.358 1.292.873.304 1.808.485 2.8.546.994.06 1.994.02 2.996-.123.974-.138 1.967-.38 2.98-.727a14.9 14.9 0 0 0 2.914-1.355 14.33 14.33 0 0 0 2.6-2.008 11.727 11.727 0 0 0 2.061-2.69c.588-1.122.927-2.273 1.023-3.448.067-1.173-.13-2.247-.594-3.22M401.408 290.352c-.691.485-1.608.81-2.747.97-1.337.191-2.521.172-3.543-.054a10.766 10.766 0 0 1-3.011-1.2l-2.349 2.472c.61.364 1.25.662 1.919.89.669.232 1.368.412 2.1.541 1.444.214 2.985.204 4.627-.03a18.62 18.62 0 0 0 1.587-.293 9.77 9.77 0 0 0 1.47-.464c.944-.351 1.757-.793 2.442-1.325a6.211 6.211 0 0 0 1.648-1.816 4.626 4.626 0 0 0 .665-2.212 3.98 3.98 0 0 0-.034-.971 2.302 2.302 0 0 0-.286-.798c-.255-.477-.652-.87-1.193-1.18a7.965 7.965 0 0 0-.929-.403 7.411 7.411 0 0 0-1.126-.306 29.096 29.096 0 0 0-2.882-.313c-.5-.021-.957-.05-1.372-.084a16.225 16.225 0 0 1-1.1-.123c-.318-.05-.6-.101-.85-.158a3.452 3.452 0 0 1-.646-.211c-.33-.14-.566-.324-.706-.552a1.444 1.444 0 0 1-.188-.835c.042-.578.379-1.092 1.012-1.539.584-.486 1.438-.81 2.564-.969.486-.069.964-.102 1.44-.1.474 0 .942.056 1.406.16.46.076.923.185 1.386.329.463.143.925.321 1.39.535l2.11-2.509c-.52-.269-1.059-.494-1.62-.677a9.977 9.977 0 0 0-1.744-.405 10.524 10.524 0 0 0-1.939-.133 18.25 18.25 0 0 0-2.219.188 13.44 13.44 0 0 0-2.896.737c-.912.361-1.693.806-2.348 1.333-.32.262-.61.54-.869.834-.262.292-.5.609-.716.95a4.265 4.265 0 0 0-.66 2.07c-.06.786.063 1.428.368 1.927.236.479.658.877 1.262 1.193.523.3 1.229.517 2.118.654.428.065.888.119 1.383.165.494.047 1.016.078 1.56.092l1.34.102c.392.029.74.07 1.043.118.604.102 1.07.221 1.399.361.35.168.585.351.708.55.09.205.135.47.137.795-.047.659-.417 1.223-1.111 1.694M208.172 278.912a7.525 7.525 0 0 1-.28 1.764c-.17.597-.387 1.18-.648 1.735a13.024 13.024 0 0 1-2.47 3.175c-.998.944-2.255 1.766-3.716 2.434-1.492.664-3.16 1.133-4.958 1.396l-12.392 1.858 8.379-17.98 5.84-.856c1.763-.256 3.364-.263 4.756-.013 1.308.235 2.395.656 3.184 1.215.761.577 1.36 1.301 1.828 2.21.372.875.531 1.9.477 3.062zm7.974-10.817a11.449 11.449 0 0 0-2.724-2.311c-1.961-1.301-4.316-2.205-7.038-2.694-2.665-.425-5.596-.411-8.707.043l-11.701 1.22-17.972 37.959 28.391-3.597c3.156-.464 6.127-1.326 8.85-2.57a33.702 33.702 0 0 0 3.788-2.074 24.863 24.863 0 0 0 3.302-2.505 22.76 22.76 0 0 0 2.792-2.928 23.75 23.75 0 0 0 2.143-3.213l.022-.041c1.262-2.4 1.975-4.88 2.117-7.364.153-2.538-.308-4.912-1.368-7.049a13.593 13.593 0 0 0-1.895-2.876M244.308 274.642l4.32-7.604 3.467 6.504zm.333-17.996-21.64 37.562 12.245-1.728 4.486-7.903 15.78-2.228 3.394 6.788 11.721-1.652-17.17-32.08-8.816 1.241M306.862 266.087l-16.87-15.788-8.998 1.27-2.163 34.811 10.986-1.55 1.171-18.932 17.412 16.308 8.416-1.188 2.163-34.809-10.99 1.55-1.127 18.328M338.754 257.213c.6-1.203 1.41-2.301 2.383-3.238a14.831 14.831 0 0 1 3.824-2.6 15.532 15.532 0 0 1 4.41-1.299c1.648-.232 3.26-.194 4.794.12 1.506.306 2.982.921 4.386 1.826l1.437.927 7.671-7.688-2.285-1.402a21.664 21.664 0 0 0-7.634-2.9c-2.646-.46-5.552-.474-8.637-.04a32.945 32.945 0 0 0-4.553.964c-1.431.419-2.845.96-4.181 1.606-2.32 1.092-4.554 2.543-6.639 4.317a22.653 22.653 0 0 0-5.286 6.587c-1.21 2.317-1.907 4.742-2.074 7.252-.125 2.625.336 4.997 1.364 7.041 1.12 2.25 2.723 4.068 4.757 5.408 1.951 1.285 4.171 2.181 6.584 2.664 1.39.287 2.888.429 4.48.423 1.301-.008 2.663-.108 4.082-.308a33.425 33.425 0 0 0 8.838-2.548c2.906-1.286 5.7-3.188 8.303-5.657l1.895-1.795-7.661-5.284-1.24 1.063c-1.57 1.352-3.224 2.484-4.918 3.365a16.493 16.493 0 0 1-5.317 1.676 14.252 14.252 0 0 1-4.19-.022c-1.244-.192-2.318-.649-3.208-1.334a7.166 7.166 0 0 1-1.85-2.443c-.436-.923-.614-1.955-.542-3.135.085-1.182.424-2.377 1.007-3.547M409.146 241.416l.64-8.128-32.963 4.655-2.353 34.837 32.956-4.653.64-8.127-21.883 3.09.257-5.941 19.424-2.743.566-7.045-19.391 2.737.226-5.594 21.881-3.088"/><path fill="url(#d)" d="m127.496 264.59-10.398-20.784h20.795"/><path fill="#171717" d="M247.415 229.155a7.185 7.185 0 0 1-1.255 3.827c-.782 1.295-1.878 2.464-3.257 3.479a20.08 20.08 0 0 1-5.1 2.69c-1.876.778-3.994 1.34-6.294 1.668-3.045.436-5.576.224-7.564-.643-1.713-.68-2.432-1.816-2.325-3.688l.007-.128-.024-.166c.18-2.153 1.342-3.928 3.563-5.438 2.28-1.607 5.65-2.738 10.023-3.361a53.675 53.675 0 0 1 7.556-.555h.02c1.156.009 2.234.06 3.2.153a28.51 28.51 0 0 1 1.572.194zm10.754-29.132c-4.549-3.243-11.61-4.208-20.98-2.87-5.114.728-9.605 1.743-13.381 3.03-3.621 1.346-4.068 1.598-5.837 2.715l-.445.28-7.714 15.214 3.366-1.534c2.805-1.278 7.923-3.165 11.525-4.388 2.067-.768 5.567-1.517 10.12-2.166 4.628-.664 8.109-.35 10.349.938 2.066 1.155 2.994 3.133 2.836 6.018a72.229 72.229 0 0 0-6.188-.275h-.003c-2.744.024-6.04.309-9.798.845a61.078 61.078 0 0 0-5.253.981c-1.69.394-3.35.863-4.948 1.401-3.32 1.16-6.153 2.613-8.369 4.28-2.392 1.622-4.393 3.722-5.945 6.235-1.375 2.208-2.209 4.879-2.479 7.935l-.012.147.025.185c-.185 2.642.339 5.005 1.562 7.029 1.12 1.827 2.743 3.399 4.824 4.672l.135.072c2.099.967 4.497 1.649 7.192 2.035.934.086 1.91.129 2.911.129.423 0 .852-.008 1.284-.023a42.351 42.351 0 0 0 4.455-.403c2.999-.428 5.748-1.218 8.169-2.35 2.384-1.116 4.52-2.4 6.353-3.82 1.72-1.333 3.173-2.705 4.323-4.08l-.392 6.625 16.588-2.367 1.873-30.713c.515-7.194-1.553-12.502-6.146-15.777M270.13 245.433l16.855-2.404 3.161-52.42-16.854 2.403-3.162 52.421M318.8 226.823l35.497-35.604-3.187-9.628-51.363 7.79-.731 11.915 32.138-4.584-35.174 35.349-.642 9.91 57.138-8.154-7.257-10.63-26.418 3.636"/><path fill="#171717" d="M395.327 208.194v.028a7.182 7.182 0 0 1-1.255 3.828c-.782 1.293-1.878 2.465-3.259 3.478a20.068 20.068 0 0 1-5.097 2.69c-1.874.778-3.991 1.34-6.295 1.669-3.045.437-5.575.224-7.563-.643-1.714-.679-2.432-1.816-2.327-3.688l.007-.13-.024-.164c.179-2.152 1.34-3.928 3.562-5.438 2.28-1.608 5.651-2.739 10.024-3.363a53.686 53.686 0 0 1 7.557-.555h.018c1.156.01 2.233.06 3.2.152.543.054 1.069.12 1.571.197zm10.755-29.104c-4.547-3.243-11.607-4.21-20.983-2.87-5.118.729-9.608 1.746-13.38 3.03a123.491 123.491 0 0 0-10.744 4.57l-1.019.494 3.72 11.414 1.321-.602c2.729-1.245 5.89-2.643 8.672-3.589 2.538-.941 5.59-1.67 9.067-2.167 4.632-.664 8.108-.348 10.346.939 2.066 1.156 2.994 3.134 2.837 6.018a72.335 72.335 0 0 0-6.19-.275h-.003c-2.757.025-6.053.31-9.795.844-1.79.256-3.557.585-5.255.98-1.705.4-3.363.87-4.945 1.403-3.321 1.159-6.156 2.612-8.372 4.28-2.39 1.62-4.39 3.719-5.944 6.236-1.374 2.207-2.209 4.877-2.479 7.934l-.012.148.025.184c-.186 2.642.339 5.004 1.562 7.028 1.12 1.828 2.744 3.4 4.825 4.673l.134.073c2.099.966 4.498 1.649 7.193 2.034.933.086 1.908.129 2.91.129.423 0 .853-.008 1.285-.024a42.078 42.078 0 0 0 4.455-.401c3.001-.429 5.749-1.22 8.169-2.35 2.385-1.119 4.521-2.402 6.352-3.82 1.723-1.338 3.178-2.711 4.325-4.083l-.393 6.627 16.588-2.367 1.873-30.713c.513-7.194-1.554-12.502-6.144-15.777M210.088 201.505l-22.47 3.34-34.643 69.11-.042-.084-4.178-8.35-6.63-13.257-.023.046-10.386 20.72-.032.062 11.011 22.529-.034.063c-2.347 4.361-7.866 9.41-10.167 10.892-2.277 1.8-5.325 2.988-9.05 3.519l-22.852 3.26-.896 16.643 25.44-3.631a79.26 79.26 0 0 0 6.156-1.116 27.995 27.995 0 0 0 5.416-1.795 32.774 32.774 0 0 0 4.94-2.443 68.425 68.425 0 0 0 4.834-3.217c1.743-1.313 3.482-2.942 5.196-4.858a52.81 52.81 0 0 0 2.908-3.556c1.229-1.638 2.475-3.517 3.706-5.583 1.27-2.142 2.57-4.4 3.864-6.717l1.195-2.381 31.857-63.514 14.89-29.685h-.01"/></svg>