<svg xmlns="http://www.w3.org/2000/svg" viewBox="0 0 512 512"><path d="M512 256a256 256 0 1 1-512 0 256 256 0 1 1 512 0z"/><path fill="#fff" d="M496.183 256.078a240.275 240.275 0 0 1-480.55 0 240.275 240.275 0 1 1 480.55 0z"/><path fill="#7c6cae" d="M268.874 119.357l-12.768 13.995-6.792-9.089c-.171-.225-.518-.194-.647.057l-34.607 69.435a.81.81 0 0 1-.647.469l-21.407 3.101c-.262.039-.459-.232-.341-.469l53.831-107.798c.119-.246.457-.277.619-.057z"/><path fill="#7f4192" d="M314.255 179.723a.22.22 0 0 1-.142.348l-20.22 2.816a1.02 1.02 0 0 1-.96-.398l-36.826-49.137 12.768-13.995z"/><path d="M393.297 175.701c-1.148-.008-2.297.036-3.432.124-10.497.806-20.283 3.64-29.358 8.5a.41.41 0 0 0-.221.547l3.485 10.575a.548.548 0 0 0 .775.314c6.429-3.518 13.299-5.685 20.61-6.501 5.035-.562 11.274.54 11.096 6.841a.263.263 0 0 1-.285.249c-14.011-.953-41.244 2.227-42.83 21.138-1.181 14.025 14.281 16.103 24.224 14.012 6.448-1.351 11.99-4.481 16.627-9.389a.242.242 0 0 1 .421.178l-.378 5.355a.42.42 0 0 0 .483.449l15.647-2.261c.36-.052.553-.259.576-.62l1.55-25.645c.351-6.349.196-10.616-.463-12.802-2.533-8.389-10.494-11.006-18.529-11.063zm-2.875 30.408c1.88-.005 3.548.091 4.812.24.237.028.366.162.385.399.967 13.072-26.187 17.58-25.811 9.217.352-7.894 12.467-9.833 20.614-9.856zm-44.859 17.346l7.005 10.17a.228.228 0 0 1-.156.356l-56.719 8.086a.228.228 0 0 1-.256-.235l.64-9.495a.228.228 0 0 1 .064-.142l34.657-34.842a.228.228 0 0 0-.199-.384l-31.194 4.452a.228.228 0 0 1-.263-.235l.718-11.522a.228.228 0 0 1 .199-.213l51.157-7.781a.228.228 0 0 1 .249.156l3.044 9.438a.228.228 0 0 1-.057.235l-34.885 34.956a.228.228 0 0 0 .192.384l25.582-3.478a.228.228 0 0 1 .22.093zm-55.268-32.374l-3.108 51.847a.306.306 0 0 1-.263.284l-16.379 2.276a.306.306 0 0 1-.348-.32l3.229-51.833a.306.306 0 0 1 .263-.284l16.258-2.29a.306.306 0 0 1 .348.32zm-46.276 5.526c-9.006.054-18.859 2.97-24.874 5.683-.697.32-1.649 1.195-1.998 1.892l-7.055 13.812a.32.32 0 0 0 .433.433 82.44 82.44 0 0 1 24.088-7.937c5.334-.882 13.435-.846 13.563 6.43a.427.427 0 0 1-.463.433c-12.275-.925-28.767 1.074-37.736 10.306-4.289 4.424-6.323 11.856-3.798 17.602 2.134 4.85 7.979 7.296 12.823 7.687 10.611.858 19.596-2.474 26.955-9.999a.206.206 0 0 1 .356.163l-.363 5.477c-.019.308.125.441.433.399l15.824-2.291a.44.44 0 0 0 .42-.449l1.415-24.202c.313-5.718 1.352-11.585-1.379-16.791-3.41-6.514-10.699-8.696-18.646-8.648zm-1.5 30.458c1.639.007 3.142.09 4.399.222.417.043.633.273.647.69.27 9.829-15.789 15.213-23.228 12.361-3.101-1.188-3.215-4.069-1.707-6.601 3.149-5.282 12.788-6.703 19.889-6.673zm-89.495 46.495a.256.263 15.2 0 0 .256-.149l34.266-68.155a.711.711 0 0 1 .519-.377l21.671-3.172q.555-.085.299.412-23.854 47.416-47.637 94.811c-6.18 12.311-14.082 22.581-27.211 27.346q-4.296 1.558-13.876 2.916-10.633 1.515-21.244 3.008a.327.334 87.4 0 1-.384-.341l.768-15.846q.014-.413.427-.469 17.688-2.653 22.453-3.286c8.094-1.067 13.527-6.394 18.385-12.873.789-1.045 1.152-1.294.477-2.653q-5.249-10.554-10.369-21.173-.142-.306.007-.612l9.964-19.949a.405.398 44.9 0 1 .718 0q5.014 10.049 10.035 20.269.128.27.477.292zm233.91-10.419l21.087-2.98a.334.334 0 0 1 .377.363l-.626 7.51a.334.334 0 0 1-.284.299l-32.417 4.587a.334.334 0 0 1-.377-.356l2.383-34.295a.334.334 0 0 1 .292-.306l32.374-4.538a.334.334 0 0 1 .377.363l-.647 7.489a.334.334 0 0 1-.284.299l-21.436 3.051a.334.334 0 0 0-.284.327l-.135 4.836a.334.334 0 0 0 .377.341l18.74-2.617a.334.334 0 0 1 .384.363l-.569 6.415a.334.334 0 0 1-.284.299l-18.94 2.646a.334.334 0 0 0-.292.313l-.199 5.249a.334.334 0 0 0 .384.341zm-42.765 14.195c-9.281.284-18.214-5.306-17.588-15.497.64-10.369 9.879-17.752 19.238-20.149 7.724-1.977 15.355-1.188 21.927 3.584q.206.149.029.327l-7.233 7.205q-.242.242-.526.057-10.078-6.372-18.733 1.387c-6.678 5.988-2.76 15.433 6.65 13.577q6.365-1.259 10.697-5.761a.811.811 0 0 1 1.038-.107l7.141 4.9q.171.121.028.27-9.203 9.779-22.666 10.206z" fill="#1d1d1c"/><path fill="#7c6cae" d="M138.003 243.966l-10.313 20.426a.22.22 0 0 1-.398 0l-9.914-19.935a.22.22 0 0 1 .192-.32l20.227-.491a.22.22 0 0 1 .206.32z"/><path d="M307.079 265.665l1.081-17.61a.242.242 0 0 1 .206-.228l10.547-1.522a.242.242 0 0 1 .27.256l-2.162 34.444a.242.242 0 0 1-.206.228l-8.143 1.152a.242.242 0 0 1-.199-.064l-16.991-15.874a.242.242 0 0 0-.405.156l-1.031 18.257a.242.242 0 0 1-.213.228l-10.59 1.444a.242.242 0 0 1-.27-.249l2.098-34.465a.242.242 0 0 1 .213-.228l8.826-1.131a.242.242 0 0 1 .199.064l16.365 15.305a.242.242 0 0 0 .405-.164zm-53.639-10.098l-8.628 1.115a.242.242 0 0 0-.178.121l-21.307 37.161a.242.242 0 0 0 .249.356l11.721-1.628a.242.242 0 0 0 .178-.121l4.231-7.702a.242.242 0 0 1 .178-.121l15.612-2.184a.242.242 0 0 1 .256.135l3.093 6.501a.242.242 0 0 0 .257.135l11.343-1.649a.242.242 0 0 0 .178-.356l-16.941-31.635a.242.242 0 0 0-.242-.128zm-4.794 12.045a.32.32 0 0 1 .349.16l2.959 5.476a.32.32 0 0 1-.235.47l-6.615.981a.32.32 0 0 1-.326-.476l3.656-6.45a.32.32 0 0 1 .213-.16zm-80.452 34.503l17.638-37.253a.747.718 8.7 0 1 .576-.405q7.681-.96 15.348-1.572 2.539-.206 5.526.448c15.127 3.307 15.568 19.395 5.32 28.306q-6.707 5.832-15.568 7.041-14.31 1.949-28.52 3.869a.306.306 0 0 1-.32-.434z" fill="#1d1d1c"/><path fill="#fff" d="M184.111 290.899l7.759-16.756a1.401 1.408 7.9 0 1 1.038-.789c4.21-.704 11.678-2.461 14.544 2.127q1.835 2.93.192 6.394-2.831 5.953-9.829 7.318-6.508 1.273-13.413 2.119a.284.292 9.2 0 1-.292-.413z"/><path d="M401.599 290.558q2.383-2.987-.889-3.25-3.087-.249-6.131-.711c-5.106-.775-3.215-6.628-.05-8.257q5.661-2.923 11.579-.733a.512.512 0 0 1 .206.818l-1.693 1.913a.498.498 0 0 1-.59.121c-2.582-1.216-7.418-1.629-8.826 1.501q-.149.341.092.626c2.119 2.475 7.496.562 10.32 2.831 2.788 2.24-.085 6.259-2.703 7.453q-6.052 2.759-12.304.341a.647.647 0 0 1-.213-1.074l1.75-1.643a.469.484 37.3 0 1 .548-.078q4.189 2.063 8.563.391a.804.782 8.2 0 0 .341-.249zm-37.548-8.636a8.35 11.564 67.2 0 0-5.765 1.209 8.35 11.564 67.2 0 0-7.425 12.179 8.35 11.564 67.2 0 0 13.896 3.216 8.35 11.564 67.2 0 0 7.425-12.179 8.35 11.564 67.2 0 0-8.132-4.424zm-1.302 2.953a5.59 7.389 64.2 0 1 5.433 2.752 5.59 7.389 64.2 0 1-4.22 8.248 5.59 7.389 64.2 0 1-9.086-1.817 5.59 7.389 64.2 0 1 4.22-8.248 5.59 7.389 64.2 0 1 3.653-.935zm-30.657 2.333l-1.053 15.988a.384.384 0 0 1-.341.356l-3.065.37a.384.384 0 0 1-.434-.405l1.031-15.924a.384.384 0 0 1 .334-.356l3.087-.434a.384.384 0 0 1 .441.405zm-31.015 4.097c-.159-.002-.317.001-.476.007-2.442.1-5.792.572-10.05 1.415-.27.057-.414.222-.433.497l-.996 15.64c-.014.213.085.317.299.313 7.311-.249 16.244-1.685 18.975-8.669 2.06-5.264-2.401-9.146-7.318-9.203zm-1.96 2.941c2.42-.001 4.742.69 5.466 2.827 1.081 3.179-1.678 6.621-4.523 7.666-1.754.64-3.928 1.029-6.522 1.167-.28.014-.411-.119-.392-.399l.57-9.971c.009-.19.103-.317.283-.383 1.294-.485 3.235-.906 5.117-.907zm-39.76 16.56q4.189.697 6.5-2.432c1.821-2.454 1.536-9.111 1.707-12.19q.021-.348.37-.398l3.008-.441q.519-.078.477.448-.455 4.893-.69 9.694c-.135 2.703-1.92 5.099-4.296 6.479-3.35 1.949-10.988 3.556-13.228-.989-1.316-2.681-.185-9.402.043-12.631q.029-.413.441-.462l2.98-.37q.469-.057.427.413-.718 7.525-.654 10.227c.036 1.515 1.472 2.411 2.916 2.653zm-35.191-5.925l-5.683.676a.484.484 0 0 1-.533-.555l.284-1.742a.484.484 0 0 1 .405-.398l16.258-2.39a.484.484 0 0 1 .548.519l-.142 1.792a.484.484 0 0 1-.405.441l-5.875.91a.484.484 0 0 0-.405.448l-.797 13.207a.484.484 0 0 1-.427.448l-2.98.334a.484.484 0 0 1-.541-.512l.832-12.667a.484.484 0 0 0-.541-.512z" fill="#1d1d1c"/><path fill="#7c6cae" d="M392.943 300.97l14.516 19.622a.405.405 0 0 1-.277.64l-20.241 2.738a.405.405 0 0 1-.377-.164l-14.523-19.444a.405.405 0 0 1 .27-.647l20.248-2.902a.405.405 0 0 1 .384.156z"/><path fill="#1d1d1c" d="M189.822 312.513c3.136 1.33 8.3-.028 10.185 2.653 1.472 2.105-.334 5.412-2.183 6.5q-6.301 3.705-13.527.669a.441.441 0 0 1-.149-.704l1.75-1.863a.626.626 0 0 1 .725-.135c2.66 1.316 8.57 2.141 10.128-1.373a.676.669 38.7 0 0-.078-.683c-1.366-1.757-7.318-1.494-8.428-1.764-5.448-1.337-2.439-6.956.896-8.52q5.526-2.589 11.002-.377a.448.448 0 0 1 .156.725l-1.771 1.87q-.284.306-.669.135c-2.639-1.145-6.522-1.465-8.499 1.109a1.145 1.152 30.2 0 0 .462 1.757z"/><path fill="#7c6cae" d="M223.894 370.25l13.583 12.841-30.038 39.994a.45.45 0 0 1-.761-.071l-49.287-98.467c-.128-.256-.128-.512 0-.768l6.486-13.029a.8.8 0 0 1 .59-.434l5.747-.825c.346-.052.597.081.754.398l38.882 77.806c.184.368.691.414.939.085z"/><path fill="#7f4192" d="M237.477 383.09l-13.583-12.841 35.214-47.069c1.038-1.38 1.358-1.927 3.229-2.183l23.534-3.321c.31-.041.518.309.334.562z"/></svg>