<svg xmlns="http://www.w3.org/2000/svg" viewBox="0 0 512 512"><defs><linearGradient id="d" x1="0" x2="1" y1="0" y2="0" gradientTransform="translate(76.756 253.674) scale(145.11887)" gradientUnits="userSpaceOnUse" spreadMethod="pad"><stop offset="0" stop-color="#8a8dcb"/><stop offset="0" stop-color="#8a8dcb"/><stop offset=".754" stop-color="#8e4eac"/><stop offset="1" stop-color="#593a65"/></linearGradient><linearGradient id="a" x1="0" x2="1" y1="0" y2="0" gradientTransform="scale(137.30167) rotate(40.414 -.316 2.409)" gradientUnits="userSpaceOnUse" spreadMethod="pad"><stop offset="0" stop-color="#7075c1"/><stop offset="0" stop-color="#7075c1"/><stop offset=".754" stop-color="#772f98"/><stop offset="1" stop-color="#33163b"/></linearGradient><linearGradient id="b" x1="0" x2="1" y1="0" y2="0" gradientTransform="scale(167.25658) rotate(-43.44 3.566 .152)" gradientUnits="userSpaceOnUse" spreadMethod="pad"><stop offset="0" stop-color="#7075c1"/><stop offset="0" stop-color="#7075c1"/><stop offset=".754" stop-color="#772f98"/><stop offset="1" stop-color="#33163b"/></linearGradient><linearGradient id="c" x1="0" x2="1" y1="0" y2="0" gradientTransform="rotate(-126.73 310.144 63.726) scale(56.53629)" gradientUnits="userSpaceOnUse" spreadMethod="pad"><stop offset="0" stop-color="#7075c1"/><stop offset=".289" stop-color="#7075c1"/><stop offset=".754" stop-color="#772f98"/><stop offset="1" stop-color="#33163b"/></linearGradient></defs><path fill="#5c1f62" d="M0 0h512v512H0Z"/><path fill="url(#a)" d="M172.402 180.265C195.776 133.513 242.535 40 242.535 40l88.51 117.833-26.827 3.785-57.222-75.82-45.54 90.413"/><path fill="url(#b)" d="m192.667 472-64.2-128.352 8.888-17.73 8.48-1.198 50.931 101.826 64.918-86.529 33.564-4.75"/><path fill="url(#c)" d="m432.12 313.615-27.13 3.837 19.381 26.046 27.124-3.838"/><g fill="#fff"><path d="M183.762 332.496c-.33-.615-.843-1.12-1.539-1.522-.367-.19-.768-.362-1.201-.521a9.655 9.655 0 0 0-1.451-.395 39.592 39.592 0 0 0-1.729-.234 34.023 34.023 0 0 0-1.993-.169 49.273 49.273 0 0 1-1.768-.108 20.362 20.362 0 0 1-1.42-.16c-.412-.061-.776-.129-1.095-.203a4.437 4.437 0 0 1-.834-.273c-.428-.18-.731-.418-.913-.711a1.84 1.84 0 0 1-.24-1.076c.05-.748.488-1.41 1.306-1.989.752-.627 1.855-1.044 3.306-1.25a13.194 13.194 0 0 1 1.858-.128c.61 0 1.217.073 1.817.207.593.096 1.19.237 1.786.423a15.01 15.01 0 0 1 1.795.69l2.72-3.238a13.993 13.993 0 0 0-2.089-.874 13.004 13.004 0 0 0-2.249-.523 13.963 13.963 0 0 0-2.502-.17c-.89.016-1.844.097-2.863.242a17.446 17.446 0 0 0-3.74.951c-1.175.468-2.183 1.042-3.027 1.722a9.366 9.366 0 0 0-2.046 2.303 5.46 5.46 0 0 0-.852 2.67c-.077 1.013.082 1.843.472 2.487.309.616.852 1.13 1.628 1.54.676.384 1.589.665 2.735.842.554.082 1.148.153 1.786.213.64.06 1.31.1 2.014.12.65.049 1.222.09 1.73.13.506.04.952.089 1.342.154.78.13 1.383.285 1.808.466.452.216.755.451.91.71.12.263.178.605.178 1.025-.06.85-.539 1.578-1.43 2.186-.893.627-2.076 1.044-3.548 1.253-1.726.245-3.252.222-4.574-.072a13.788 13.788 0 0 1-3.882-1.55l-3.03 3.192a13.25 13.25 0 0 0 2.475 1.15c.864.299 1.766.531 2.711.696 1.86.276 3.85.263 5.968-.035.71-.102 1.39-.229 2.05-.382.66-.152 1.291-.352 1.895-.6 1.22-.452 2.27-1.022 3.154-1.709a8.008 8.008 0 0 0 2.127-2.343c.52-.854.805-1.805.858-2.853a5.377 5.377 0 0 0-.045-1.255 3.04 3.04 0 0 0-.37-1.03M206.942 319.808l8.625-1.225-1.09 17.932 4.828-.686 1.086-17.931 8.626-1.223.224-3.485-22.075 3.133-.224 3.485M270.073 319.677c-.136 1.983-.836 3.562-2.088 4.742-1.312 1.205-3.016 1.958-5.114 2.255-2.12.3-3.774.01-4.962-.886-1.14-.858-1.657-2.297-1.543-4.315l.786-12.244-4.767.677-.798 12.393c-.075 1.554.111 2.88.568 3.974a5.996 5.996 0 0 0 2.148 2.669c.933.647 2.104 1.07 3.514 1.271 1.366.187 2.955.152 4.76-.104 1.806-.255 3.417-.674 4.835-1.256a13.196 13.196 0 0 0 3.812-2.344 10.98 10.98 0 0 0 2.554-3.366c.615-1.305.972-2.75 1.07-4.324l.786-12.211-4.766.676-.795 12.393M318.551 312.678c-.147.5-.338.99-.573 1.462a10.394 10.394 0 0 1-2.066 2.575c-.834.76-1.853 1.406-3.06 1.937-1.187.51-2.488.865-3.9 1.065l-5.357.759.873-14.568 5.358-.76c1.412-.201 2.694-.201 3.843 0 1.15.197 2.11.56 2.888 1.092a5.915 5.915 0 0 1 1.764 2.062c.376.826.54 1.765.488 2.812a6.508 6.508 0 0 1-.258 1.568zm3.331-8.054a6.653 6.653 0 0 0-1.628-1.315c-1.233-.786-2.711-1.328-4.434-1.624-1.758-.27-3.68-.257-5.76.037l-10.123 1.438-1.315 21.415 10.124-1.439c2.12-.3 4.084-.849 5.892-1.645.902-.409 1.744-.855 2.528-1.337a15.868 15.868 0 0 0 2.16-1.581 14.002 14.002 0 0 0 1.8-1.818 14.64 14.64 0 0 0 1.384-1.997c.795-1.454 1.235-2.927 1.325-4.422.09-1.474-.183-2.826-.815-4.058a7.756 7.756 0 0 0-1.138-1.655M347.72 317.606l4.769-.675 1.373-21.426-4.766.677-1.376 21.424M401.038 299.471c-.06.99-.34 2-.844 3.033a8.94 8.94 0 0 1-2.06 2.724 10.494 10.494 0 0 1-3.126 2.11 13.53 13.53 0 0 1-3.606 1.037 11.727 11.727 0 0 1-3.441-.021c-1.156-.176-2.172-.612-3.05-1.31-.72-.536-1.287-1.243-1.7-2.116-.412-.871-.587-1.852-.52-2.943.074-1.032.359-2.052.855-3.062a9.269 9.269 0 0 1 2.044-2.724 10.634 10.634 0 0 1 3.126-2.11 13.63 13.63 0 0 1 3.605-1.037 10.794 10.794 0 0 1 3.412.04 7.689 7.689 0 0 1 3.081 1.29c.738.537 1.308 1.247 1.715 2.13.404.883.576 1.87.51 2.96zm4.253-4.958a7.88 7.88 0 0 0-2.832-3.23c-1.235-.806-2.625-1.36-4.168-1.661-1.652-.346-3.547-.368-5.685-.064a20.472 20.472 0 0 0-5.795 1.694 21.39 21.39 0 0 0-2.268 1.265 18.572 18.572 0 0 0-2.13 1.596 16.843 16.843 0 0 0-1.902 1.935 12.994 12.994 0 0 0-1.526 2.26 11.298 11.298 0 0 0-1.317 4.479c-.087 1.494.169 2.87.766 4.125.538 1.104 1.258 2.02 2.16 2.742a10.188 10.188 0 0 0 3.044 1.668c1.127.391 2.333.625 3.613.704 1.283.077 2.573.025 3.866-.159a20.98 20.98 0 0 0 3.846-.937 19.229 19.229 0 0 0 3.76-1.749 18.492 18.492 0 0 0 3.356-2.592 15.133 15.133 0 0 0 2.66-3.47c.757-1.448 1.195-2.933 1.32-4.451.086-1.513-.17-2.898-.768-4.155M443.64 300.33c-.89.625-2.073 1.044-3.544 1.252-1.725.246-3.253.222-4.572-.07a13.892 13.892 0 0 1-3.885-1.55l-3.031 3.19c.786.47 1.613.855 2.475 1.15.864.3 1.766.532 2.711.698 1.863.276 3.851.263 5.97-.038.708-.1 1.39-.227 2.049-.38a12.61 12.61 0 0 0 1.897-.598c1.217-.453 2.267-1.023 3.151-1.71a8.016 8.016 0 0 0 2.127-2.343c.52-.854.805-1.805.858-2.855a5.139 5.139 0 0 0-.044-1.253 2.97 2.97 0 0 0-.37-1.03c-.328-.614-.841-1.121-1.539-1.523a10.28 10.28 0 0 0-1.198-.52 9.563 9.563 0 0 0-1.454-.394 37.668 37.668 0 0 0-3.719-.404 44.124 44.124 0 0 1-1.77-.108 20.974 20.974 0 0 1-1.42-.159c-.41-.064-.775-.13-1.096-.204a4.455 4.455 0 0 1-.834-.273c-.427-.18-.731-.417-.91-.712a1.863 1.863 0 0 1-.244-1.077c.054-.746.49-1.41 1.307-1.986.752-.627 1.855-1.045 3.308-1.25a12.76 12.76 0 0 1 1.858-.13 8.27 8.27 0 0 1 1.815.207c.594.097 1.19.238 1.787.424.599.185 1.195.415 1.795.69l2.723-3.237a13.93 13.93 0 0 0-2.09-.874 12.874 12.874 0 0 0-2.252-.522 13.58 13.58 0 0 0-2.501-.171c-.887.017-1.842.096-2.864.241-1.315.187-2.56.504-3.737.952-1.177.466-2.185 1.04-3.03 1.72a9.767 9.767 0 0 0-1.122 1.076 9.315 9.315 0 0 0-.924 1.227 5.503 5.503 0 0 0-.853 2.671c-.075 1.014.083 1.842.476 2.487.306.617.85 1.13 1.628 1.539.676.386 1.587.667 2.734.843.553.084 1.146.154 1.785.213.638.061 1.31.1 2.014.12.648.049 1.224.091 1.728.13.507.037.955.09 1.346.153.78.131 1.38.285 1.805.466.451.216.756.453.914.71.116.265.174.606.177 1.025-.061.85-.538 1.579-1.434 2.187"/></g><g fill="#fff"><path d="M194.28 285.566a9.705 9.705 0 0 1-.36 2.277c-.22.77-.5 1.522-.837 2.24a16.807 16.807 0 0 1-3.187 4.097c-1.288 1.217-2.91 2.278-4.796 3.14-1.926.857-4.077 1.462-6.397 1.801l-15.991 2.398 10.811-23.202 7.538-1.104c2.274-.331 4.34-.34 6.137-.017 1.687.302 3.09.846 4.108 1.567.982.745 1.755 1.68 2.36 2.853.479 1.128.684 2.451.614 3.951zm10.29-13.958c-1-1.17-2.212-2.19-3.515-2.983-2.53-1.678-5.57-2.844-9.082-3.475-3.438-.55-7.221-.531-11.236.055l-15.1 1.573-23.191 48.985 36.637-4.642c4.072-.598 7.907-1.71 11.422-3.317a43.49 43.49 0 0 0 4.887-2.676 32.084 32.084 0 0 0 4.26-3.232 29.37 29.37 0 0 0 3.603-3.778 30.649 30.649 0 0 0 2.766-4.146l.029-.054c1.628-3.096 2.548-6.296 2.73-9.503.198-3.275-.397-6.339-1.764-9.095a17.541 17.541 0 0 0-2.446-3.712M240.912 280.056l5.576-9.812 4.472 8.393zm.43-23.222-27.925 48.47 15.8-2.229 5.79-10.198L255.37 290l4.38 8.76 15.125-2.131-22.158-41.399-11.376 1.603M321.635 269.017l-21.77-20.373-11.611 1.639-2.792 44.92 14.178-1.999 1.51-24.432 22.47 21.046 10.86-1.534 2.79-44.919-14.181 2-1.454 23.652M362.79 257.565a15.281 15.281 0 0 1 3.074-4.178c1.51-1.404 3.172-2.533 4.935-3.354a20.043 20.043 0 0 1 5.69-1.677c2.127-.3 4.208-.25 6.188.154 1.943.396 3.847 1.189 5.66 2.356l1.853 1.196 9.9-9.92-2.949-1.809a27.956 27.956 0 0 0-9.85-3.742c-3.415-.594-7.165-.612-11.146-.051a42.516 42.516 0 0 0-5.876 1.243 35.104 35.104 0 0 0-5.395 2.073c-2.993 1.408-5.877 3.28-8.568 5.57-2.762 2.353-5.052 5.202-6.821 8.5-1.56 2.99-2.46 6.12-2.677 9.359-.16 3.387.434 6.448 1.76 9.086 1.447 2.902 3.514 5.25 6.14 6.978 2.517 1.658 5.382 2.815 8.495 3.438 1.794.37 3.727.554 5.783.546 1.678-.01 3.436-.14 5.267-.398a43.133 43.133 0 0 0 11.405-3.287c3.75-1.66 7.355-4.115 10.714-7.3l2.445-2.318-9.886-6.818-1.599 1.373c-2.027 1.744-4.162 3.205-6.347 4.341-2.096 1.09-4.404 1.816-6.862 2.164a18.39 18.39 0 0 1-5.408-.029c-1.604-.249-2.99-.838-4.139-1.722-1.01-.86-1.789-1.891-2.386-3.152-.564-1.192-.793-2.523-.7-4.046.11-1.526.547-3.067 1.3-4.577M453.627 237.18l.826-10.488-42.538 6.006-3.036 44.955 42.528-6.004.826-10.487-28.239 3.986.331-7.666 25.066-3.539.73-9.091-25.023 3.532.292-7.219 28.237-3.985"/></g><path fill="url(#d)" d="m90.172 267.086-13.417-26.822h26.835"/><path fill="#fff" d="M244.921 221.358c-.075 1.812-.591 3.407-1.618 4.939-1.01 1.67-2.425 3.18-4.204 4.49-1.97 1.44-4.158 2.598-6.581 3.47-2.422 1.005-5.154 1.729-8.123 2.153-3.928.562-7.194.29-9.76-.83-2.211-.877-3.138-2.344-3-4.759l.008-.166-.031-.214c.232-2.778 1.73-5.068 4.597-7.017 2.942-2.074 7.292-3.534 12.935-4.337a69.263 69.263 0 0 1 9.75-.717h.025c1.493.012 2.884.078 4.13.198.703.067 1.382.152 2.03.251zm13.878-37.593c-5.87-4.185-14.982-5.431-27.073-3.703-6.6.938-12.396 2.249-17.268 3.91-4.673 1.736-5.25 2.062-7.532 3.502l-.575.362-9.953 19.633 4.343-1.98c3.62-1.65 10.224-4.084 14.872-5.663 2.667-.99 7.184-1.956 13.06-2.794 5.972-.857 10.463-.451 13.354 1.21 2.666 1.491 3.863 4.044 3.66 7.767a93.395 93.395 0 0 0-3.091-.22 88.755 88.755 0 0 0-4.895-.136h-.004c-3.54.031-7.794.399-12.644 1.09a78.82 78.82 0 0 0-6.778 1.267 69.31 69.31 0 0 0-6.385 1.808c-4.283 1.496-7.94 3.371-10.8 5.523-3.087 2.093-5.67 4.802-7.672 8.045-1.774 2.85-2.85 6.296-3.199 10.24l-.016.19.033.239c-.238 3.41.437 6.458 2.016 9.07 1.446 2.358 3.539 4.386 6.225 6.03l.175.093c2.708 1.247 5.802 2.126 9.28 2.625 1.206.11 2.464.166 3.757.166.546 0 1.098-.01 1.657-.03a54.659 54.659 0 0 0 5.748-.52c3.87-.55 7.417-1.571 10.542-3.03 3.076-1.442 5.833-3.099 8.198-4.93 2.22-1.721 4.094-3.492 5.58-5.266l-.507 8.55 21.406-3.056 2.417-39.633c.665-9.284-2.004-16.133-7.93-20.359M274.234 242.364l21.75-3.103 4.08-67.644-21.75 3.1-4.08 67.647M337.04 218.349l45.807-45.946-4.113-12.424-66.281 10.054-.944 15.375 41.473-5.916-45.39 45.616-.828 12.787 73.733-10.521-9.364-13.718-34.092 4.693"/><path fill="#fff" d="M435.794 194.31v.034c-.077 1.813-.591 3.407-1.62 4.94-1.01 1.67-2.423 3.182-4.205 4.488-1.966 1.442-4.154 2.599-6.578 3.473-2.418 1.003-5.15 1.727-8.123 2.153-3.93.563-7.194.29-9.759-.83-2.212-.875-3.139-2.343-3.004-4.759l.01-.168-.032-.212c.231-2.777 1.73-5.069 4.597-7.017 2.942-2.074 7.293-3.534 12.936-4.34a69.28 69.28 0 0 1 9.751-.715h.023c1.492.012 2.883.077 4.13.196.701.069 1.38.154 2.028.254zm13.88-37.558c-5.87-4.185-14.98-5.432-27.078-3.705-6.605.942-12.4 2.254-17.266 3.912a159.36 159.36 0 0 0-13.865 5.897l-1.315.637 4.8 14.729 1.705-.777c3.521-1.607 7.6-3.41 11.19-4.631 3.276-1.215 7.213-2.155 11.7-2.796 5.978-.857 10.464-.45 13.352 1.21 2.666 1.493 3.863 4.045 3.66 7.767a93.515 93.515 0 0 0-7.987-.354h-.004c-3.558.032-7.81.4-12.64 1.089-2.31.33-4.59.754-6.781 1.265a70.29 70.29 0 0 0-6.38 1.81c-4.287 1.495-7.945 3.37-10.805 5.523-3.085 2.09-5.665 4.799-7.67 8.047-1.774 2.847-2.85 6.293-3.2 10.239l-.016.19.033.238c-.24 3.41.438 6.457 2.016 9.069 1.446 2.36 3.54 4.388 6.227 6.03l.173.094c2.708 1.247 5.804 2.128 9.282 2.626a41.07 41.07 0 0 0 3.755.166c.546 0 1.1-.01 1.658-.031a54.296 54.296 0 0 0 5.749-.518c3.872-.553 7.418-1.573 10.541-3.032 3.078-1.444 5.835-3.1 8.197-4.93 2.224-1.727 4.101-3.498 5.58-5.269l-.506 8.553 21.406-3.056 2.418-39.633c.662-9.284-2.006-16.133-7.93-20.359M196.753 185.677l-28.996 4.31-44.705 89.184-.055-.11-5.39-10.775-8.557-17.108-.03.06-13.402 26.737-.04.081 14.209 29.072-.045.082c-3.03 5.628-10.15 12.143-13.12 14.056-2.937 2.323-6.872 3.855-11.678 4.54l-29.49 4.208-1.155 21.477 32.827-4.687c2.774-.394 5.446-.878 7.945-1.439a36.126 36.126 0 0 0 6.989-2.317 42.294 42.294 0 0 0 6.374-3.153 88.303 88.303 0 0 0 6.239-4.151c2.25-1.695 4.494-3.796 6.706-6.269a68.14 68.14 0 0 0 3.752-4.589c1.585-2.113 3.194-4.537 4.782-7.204 1.64-2.764 3.317-5.68 4.986-8.668l1.542-3.073 41.11-81.96 19.215-38.307h-.013"/></svg>