<svg xmlns="http://www.w3.org/2000/svg" viewBox="0 0 512 253"><g fill="var(--text,#171717)"><path d="M164.315 228.802c-.42-.78-1.07-1.422-1.953-1.931-.466-.24-.975-.46-1.525-.662-.548-.2-1.161-.367-1.841-.5a50.29 50.29 0 0 0-2.195-.298 43.214 43.214 0 0 0-2.529-.214 62.447 62.447 0 0 1-2.244-.137 25.812 25.812 0 0 1-1.803-.204 17.27 17.27 0 0 1-1.39-.258 5.636 5.636 0 0 1-1.058-.346c-.542-.228-.928-.53-1.159-.902a2.334 2.334 0 0 1-.305-1.365c.064-.95.62-1.79 1.659-2.525.954-.796 2.354-1.326 4.196-1.586.794-.11 1.582-.167 2.358-.163.775 0 1.544.093 2.306.262.753.122 1.51.302 2.267.537.757.235 1.518.528 2.278.876l3.453-4.109a17.762 17.762 0 0 0-2.652-1.11 16.504 16.504 0 0 0-2.854-.663 17.724 17.724 0 0 0-3.177-.217c-1.128.02-2.34.124-3.633.308-1.67.238-3.254.64-4.748 1.207-1.49.593-2.77 1.322-3.841 2.185a11.885 11.885 0 0 0-2.597 2.922c-.662 1.06-1.024 2.19-1.081 3.39-.098 1.286.104 2.339.6 3.157.392.782 1.08 1.434 2.066 1.953.857.49 2.016.846 3.47 1.07.703.104 1.458.194 2.268.27.811.077 1.662.127 2.556.152.824.062 1.551.115 2.194.165.644.05 1.21.113 1.705.196.989.164 1.756.361 2.295.591.573.275.958.573 1.155.9.15.335.225.769.225 1.302-.077 1.08-.683 2.004-1.815 2.775-1.133.796-2.634 1.325-4.503 1.59-2.19.31-4.127.282-5.805-.09a17.5 17.5 0 0 1-4.927-1.968l-3.846 4.051a16.818 16.818 0 0 0 3.142 1.46 22.17 22.17 0 0 0 3.44.883c2.361.35 4.888.334 7.574-.045.902-.129 1.766-.29 2.603-.484a15.609 15.609 0 0 0 2.405-.761c1.548-.575 2.88-1.299 4.003-2.17a10.163 10.163 0 0 0 2.7-2.974c.66-1.084 1.021-2.291 1.089-3.62a6.821 6.821 0 0 0-.057-1.594 3.857 3.857 0 0 0-.469-1.307M193.735 212.7l10.947-1.556-1.382 22.759 6.126-.87 1.38-22.759 10.946-1.552.285-4.423-28.017 3.977-.285 4.423M273.862 212.533c-.174 2.516-1.062 4.52-2.65 6.018-1.666 1.53-3.828 2.485-6.492 2.863-2.689.38-4.79.012-6.298-1.126-1.447-1.089-2.102-2.915-1.958-5.476l.998-15.54-6.05.86-1.013 15.728c-.096 1.972.141 3.655.72 5.044a7.61 7.61 0 0 0 2.728 3.387c1.183.822 2.67 1.359 4.459 1.614 1.734.237 3.75.192 6.042-.132 2.291-.324 4.336-.856 6.137-1.595 1.826-.742 3.437-1.734 4.838-2.974a13.937 13.937 0 0 0 3.241-4.272c.78-1.657 1.233-3.49 1.357-5.488l.998-15.5-6.049.86-1.008 15.729M335.39 203.649a11.287 11.287 0 0 1-.727 1.855 13.192 13.192 0 0 1-2.623 3.27c-1.058.963-2.351 1.783-3.883 2.457-1.507.647-3.159 1.098-4.95 1.352l-6.8.963 1.108-18.49 6.8-.964c1.793-.255 3.42-.255 4.878 0 1.46.25 2.68.712 3.665 1.386a7.508 7.508 0 0 1 2.24 2.617c.477 1.048.685 2.24.62 3.57-.03.689-.141 1.354-.328 1.989zm4.228-10.222a8.443 8.443 0 0 0-2.067-1.669c-1.564-.998-3.44-1.686-5.627-2.061-2.232-.343-4.67-.326-7.31.047l-12.85 1.825-1.668 27.18 12.85-1.826c2.69-.381 5.182-1.077 7.477-2.088a28.835 28.835 0 0 0 3.209-1.698 20.139 20.139 0 0 0 2.742-2.006 17.772 17.772 0 0 0 2.285-2.307 18.581 18.581 0 0 0 1.756-2.535c1.009-1.845 1.568-3.715 1.68-5.612.116-1.87-.23-3.588-1.033-5.15a9.843 9.843 0 0 0-1.444-2.1M372.412 209.904l6.052-.856 1.743-27.194-6.05.859-1.745 27.19M440.083 186.887c-.077 1.256-.432 2.539-1.072 3.849a11.347 11.347 0 0 1-2.615 3.458 13.319 13.319 0 0 1-3.967 2.677 17.172 17.172 0 0 1-4.576 1.317 14.883 14.883 0 0 1-4.368-.027c-1.467-.223-2.756-.777-3.871-1.662-.913-.68-1.633-1.578-2.158-2.686-.523-1.106-.744-2.351-.66-3.735.094-1.31.456-2.605 1.086-3.886.63-1.287 1.497-2.438 2.595-3.458a13.497 13.497 0 0 1 3.967-2.679 17.3 17.3 0 0 1 4.575-1.315c1.494-.211 2.942-.196 4.33.05 1.399.248 2.7.795 3.911 1.637.937.683 1.66 1.583 2.177 2.703.513 1.122.73 2.374.646 3.758zm5.398-6.292c-.829-1.71-2.028-3.08-3.595-4.101-1.568-1.022-3.33-1.725-5.29-2.108-2.097-.439-4.501-.466-7.215-.081-2.617.37-5.068 1.087-7.356 2.15a27.147 27.147 0 0 0-2.878 1.606 23.57 23.57 0 0 0-2.703 2.025 21.378 21.378 0 0 0-2.414 2.456 16.494 16.494 0 0 0-1.937 2.868c-.962 1.81-1.521 3.708-1.672 5.685-.11 1.897.214 3.643.973 5.236.682 1.402 1.596 2.563 2.742 3.48a12.93 12.93 0 0 0 3.862 2.117c1.43.497 2.962.794 4.586.893 1.628.099 3.266.032 4.907-.2a26.628 26.628 0 0 0 4.881-1.19 24.404 24.404 0 0 0 4.773-2.22 23.47 23.47 0 0 0 4.259-3.29 19.208 19.208 0 0 0 3.375-4.404c.962-1.838 1.518-3.723 1.676-5.65.11-1.92-.215-3.678-.974-5.273M494.155 187.976c-1.132.794-2.633 1.326-4.5 1.59-2.19.312-4.129.282-5.803-.089a17.632 17.632 0 0 1-4.93-1.967l-3.848 4.05a16.631 16.631 0 0 0 3.142 1.46c1.096.378 2.242.673 3.44.884 2.366.35 4.889.335 7.578-.048a30.463 30.463 0 0 0 2.6-.482 16.004 16.004 0 0 0 2.408-.76c1.545-.574 2.878-1.298 4-2.17a10.174 10.174 0 0 0 2.7-2.973c.66-1.084 1.021-2.292 1.088-3.624a6.527 6.527 0 0 0-.056-1.59 3.77 3.77 0 0 0-.469-1.307c-.416-.78-1.068-1.423-1.953-1.933-.463-.24-.973-.46-1.521-.66-.55-.2-1.167-.369-1.846-.5a47.761 47.761 0 0 0-4.72-.513 56.16 56.16 0 0 1-2.246-.138 26.592 26.592 0 0 1-1.803-.2 21.15 21.15 0 0 1-1.39-.26 5.66 5.66 0 0 1-1.06-.346c-.541-.228-.927-.53-1.155-.904-.235-.398-.338-.854-.309-1.367.069-.947.621-1.789 1.659-2.521.955-.796 2.354-1.326 4.198-1.586.796-.114 1.58-.168 2.358-.165.777 0 1.544.092 2.304.262.754.124 1.51.302 2.269.539.76.235 1.516.526 2.277.876l3.456-4.11c-.85-.44-1.734-.809-2.653-1.109a16.34 16.34 0 0 0-2.857-.662 17.237 17.237 0 0 0-3.175-.217 29.88 29.88 0 0 0-3.634.306c-1.669.237-3.25.64-4.744 1.208-1.494.592-2.773 1.32-3.845 2.183-.523.429-.998.885-1.424 1.365-.428.479-.818.999-1.173 1.558a6.985 6.985 0 0 0-1.082 3.39c-.096 1.287.105 2.338.604 3.156.387.784 1.078 1.436 2.066 1.954.858.49 2.014.847 3.47 1.07a39.05 39.05 0 0 0 2.266.27c.81.078 1.663.128 2.555.152l2.194.166c.643.047 1.212.115 1.708.194.99.166 1.753.362 2.291.592.573.274.959.574 1.16.9.147.336.22.77.224 1.302-.077 1.079-.682 2.003-1.82 2.775"/><path d="M177.665 169.24a12.319 12.319 0 0 1-.458 2.89 18.833 18.833 0 0 1-1.062 2.841 21.332 21.332 0 0 1-4.044 5.2c-1.635 1.545-3.694 2.892-6.088 3.986-2.444 1.087-5.174 1.856-8.119 2.286l-20.296 3.043 13.722-29.448 9.567-1.402c2.886-.42 5.509-.43 7.789-.02 2.142.383 3.922 1.073 5.214 1.989 1.247.945 2.228 2.131 2.994 3.62.61 1.432.87 3.111.78 5.015zm13.06-17.718a18.752 18.752 0 0 0-4.461-3.785c-3.212-2.13-7.07-3.61-11.527-4.41-4.364-.697-9.166-.675-14.26.07l-19.165 1.996-29.435 62.172 46.5-5.892c5.168-.76 10.035-2.17 14.496-4.21a55.198 55.198 0 0 0 6.203-3.396 40.72 40.72 0 0 0 5.408-4.102 37.277 37.277 0 0 0 4.572-4.796 38.9 38.9 0 0 0 3.511-5.262l.036-.068c2.067-3.93 3.235-7.99 3.466-12.06.25-4.158-.504-8.046-2.24-11.545a22.264 22.264 0 0 0-3.104-4.711M236.85 162.245l7.077-12.453 5.677 10.652zm.546-29.474-35.442 61.52 20.054-2.83 7.347-12.943 25.847-3.65 5.558 11.119 19.197-2.707-28.122-52.543-14.44 2.034M339.304 148.235l-27.63-25.859-14.738 2.08-3.543 57.015 17.994-2.538 1.918-31.009 28.518 26.71 13.784-1.946 3.542-57.01-18 2.538-1.845 30.019M391.538 133.7a19.395 19.395 0 0 1 3.902-5.304c1.917-1.782 4.025-3.214 6.263-4.256a25.44 25.44 0 0 1 7.223-2.129c2.7-.38 5.34-.317 7.853.196 2.466.502 4.883 1.509 7.183 2.99l2.353 1.518 12.564-12.59-3.742-2.296c-3.885-2.382-8.092-3.981-12.503-4.75-4.334-.754-9.093-.776-14.146-.065a53.96 53.96 0 0 0-7.457 1.578 44.554 44.554 0 0 0-6.848 2.631c-3.8 1.787-7.46 4.164-10.874 7.07-3.505 2.986-6.413 6.603-8.658 10.79-1.98 3.793-3.123 7.765-3.397 11.876-.204 4.3.55 8.184 2.235 11.532 1.835 3.684 4.459 6.663 7.791 8.857 3.195 2.104 6.831 3.573 10.783 4.363 2.276.47 4.73.703 7.339.693a50.066 50.066 0 0 0 6.685-.504c4.922-.696 9.793-2.101 14.475-4.173 4.76-2.106 9.335-5.222 13.6-9.265l3.102-2.941-12.548-8.654-2.029 1.742c-2.572 2.214-5.282 4.068-8.055 5.51-2.66 1.383-5.59 2.306-8.71 2.746a23.342 23.342 0 0 1-6.863-.036c-2.036-.316-3.796-1.063-5.254-2.185-1.28-1.093-2.27-2.401-3.028-4.001-.716-1.513-1.007-3.202-.889-5.135.14-1.937.695-3.893 1.65-5.81M506.829 107.827l1.048-13.312-53.989 7.624-3.854 57.057 53.977-7.62 1.048-13.311-35.84 5.06.42-9.73 31.813-4.492.928-11.539-31.76 4.483.37-9.162 35.839-5.058"/><path fill="#7c6cae" d="M45.53 145.784 28.502 111.74h34.06"/><path d="M241.939 87.746c-.096 2.3-.751 4.323-2.055 6.268-1.281 2.12-3.077 4.036-5.335 5.698-2.501 1.83-5.278 3.298-8.353 4.404-3.073 1.276-6.541 2.195-10.31 2.734-4.985.713-9.13.367-12.387-1.053-2.806-1.113-3.983-2.976-3.808-6.04l.011-.212-.04-.27c.296-3.527 2.198-6.434 5.835-8.907 3.734-2.633 9.255-4.485 16.417-5.505 4.212-.602 8.382-.91 12.376-.91h.03c1.896.016 3.66.099 5.242.251a46.71 46.71 0 0 1 2.576.319zm17.614-47.714c-7.45-5.311-19.015-6.893-34.362-4.7-8.376 1.191-15.732 2.855-21.917 4.963-5.93 2.203-6.663 2.617-9.56 4.445l-.729.46-12.633 24.918 5.512-2.513c4.595-2.094 12.977-5.184 18.877-7.187 3.385-1.258 9.117-2.484 16.576-3.547 7.579-1.088 13.28-.573 16.948 1.536 3.384 1.892 4.904 5.132 4.645 9.857-1.328-.117-2.64-.21-3.923-.28-2.066-.114-4.15-.171-6.212-.171h-.005c-4.493.04-9.892.506-16.048 1.384-2.943.42-5.838.96-8.603 1.607a87.967 87.967 0 0 0-8.103 2.295c-5.437 1.898-10.078 4.279-13.707 7.01-3.92 2.656-7.197 6.095-9.738 10.211-2.252 3.617-3.618 7.99-4.06 12.997l-.02.24.04.303c-.301 4.328.556 8.197 2.56 11.512 1.835 2.993 4.491 5.567 7.9 7.653l.222.118c3.437 1.583 7.365 2.7 11.78 3.333 1.529.14 3.126.21 4.767.21.693 0 1.394-.012 2.103-.037a69.365 69.365 0 0 0 7.296-.66c4.912-.7 9.414-1.995 13.379-3.847 3.905-1.83 7.404-3.933 10.405-6.257 2.818-2.185 5.197-4.432 7.082-6.684l-.643 10.852 27.168-3.878 3.069-50.303c.843-11.783-2.544-20.477-10.067-25.84M279.142 114.406l27.606-3.937 5.178-85.855-27.604 3.936-5.18 85.856M358.857 83.926l58.138-58.314-5.22-15.769-84.125 12.76-1.197 19.515 52.637-7.509-57.61 57.896-1.05 16.23 93.582-13.354-11.885-17.411-43.27 5.956"/><path d="M484.195 53.415v.045c-.097 2.3-.75 4.324-2.056 6.27-1.28 2.118-3.075 4.038-5.337 5.696-2.495 1.83-5.272 3.298-8.349 4.408-3.068 1.272-6.536 2.192-10.31 2.732-4.987.715-9.13.367-12.385-1.053-2.808-1.112-3.985-2.974-3.813-6.04l.012-.213-.04-.27c.293-3.524 2.195-6.433 5.835-8.906 3.733-2.633 9.256-4.485 16.418-5.507 4.214-.602 8.382-.91 12.376-.91h.03c1.893.016 3.658.1 5.24.25.89.087 1.752.195 2.575.322zm17.616-47.667c-7.449-5.312-19.012-6.895-34.367-4.703-8.383 1.195-15.738 2.86-21.914 4.965a202.263 202.263 0 0 0-17.598 7.485l-1.669.808 6.094 18.694 2.163-.986c4.47-2.04 9.647-4.329 14.202-5.878 4.158-1.542 9.155-2.735 14.851-3.548 7.586-1.088 13.28-.571 16.945 1.536 3.384 1.894 4.903 5.134 4.646 9.857a118.608 118.608 0 0 0-10.138-.45h-.005c-4.516.041-9.913.508-16.043 1.383-2.93.418-5.826.957-8.606 1.605a89.212 89.212 0 0 0-8.098 2.297c-5.44 1.898-10.083 4.279-13.712 7.011-3.916 2.653-7.192 6.09-9.737 10.213-2.25 3.614-3.617 7.987-4.06 12.995l-.02.242.041.302c-.304 4.327.556 8.195 2.559 11.51 1.835 2.995 4.493 5.569 7.903 7.654l.22.119c3.437 1.583 7.366 2.701 11.78 3.332 1.528.14 3.125.211 4.767.211.692 0 1.396-.013 2.104-.04a68.916 68.916 0 0 0 7.296-.657c4.915-.701 9.416-1.996 13.38-3.848 3.906-1.832 7.405-3.935 10.403-6.257 2.823-2.192 5.205-4.44 7.083-6.687l-.643 10.855 27.168-3.878 3.069-50.303c.84-11.783-2.546-20.476-10.065-25.84M180.803 42.46l-36.801 5.47-56.74 113.192-.07-.14-6.841-13.675-10.86-21.713-.039.076-17.01 33.934-.051.103 18.034 36.898-.057.104c-3.844 7.143-12.883 15.412-16.65 17.84-3.73 2.949-8.723 4.894-14.823 5.763l-37.428 5.34L0 252.912l41.664-5.948c3.52-.501 6.913-1.115 10.084-1.827 3.132-.703 6.116-1.693 8.87-2.941a53.68 53.68 0 0 0 8.09-4.001 112.074 112.074 0 0 0 7.919-5.27c2.855-2.15 5.703-4.817 8.511-7.956a86.488 86.488 0 0 0 4.762-5.824c2.013-2.682 4.055-5.76 6.07-9.143a488.88 488.88 0 0 0 6.328-11.002l1.957-3.9 52.178-104.025 24.387-48.619h-.017"/></g></svg>