<svg xmlns="http://www.w3.org/2000/svg" viewBox="0 0 512 512"><path fill="#5c1f62" d="M0 0h512v512H0z"/><path fill="#7c68ab" d="M296.031 110.914q-7.301 9.851-16.194 18.555l-32.294-43.112a.664.664 0 0 0-1.128.104l-44.241 88.434a2.598 2.588 9.2 0 1-1.963 1.413l-27.127 3.821a.303.294 9.4 0 1-.313-.427L242.413 40.42a.455.455 0 0 1 .768-.066z"/><path fill="#803c8f" d="M296.031 110.914l20.423 27.098-15.218 20.015-21.4-28.558c5.929-5.803 11.327-11.988 16.194-18.555z"/><path d="M432.333 152.167c-14.969-.054-32.683 6.327-41.781 11.276-.228.12-.301.303-.219.55l4.437 13.539c.209.626.601.781 1.176.465 7.5-4.077 40.506-17 40.724.219a.664.654 1.9 0 1-.711.663c-17.711-1.28-51.466 2.891-54.652 25.798-1.365 9.832 4.02 17.607 13.928 19.504 12.218 2.345 23.266-.094 33.139-7.319 1.697-1.233 3.545-3.167 5.356-4.741.398-.348.579-.26.541.265l-.456 6.665c-.038.512.196.731.702.656l20.32-2.883c.303-.044.464-.217.483-.52l2.113-34.598c.411-6.466.244-11.145-.502-14.033-2.974-11.528-12.956-15.462-24.598-15.504zm-2.967 39.335c2.393-.008 4.49.105 6.033.27.297.032.455.195.474.493 1.308 16.877-34.125 22.727-33.443 11.624.624-10.069 16.565-12.356 26.935-12.387zm-57.986 22.277l8.96 13.179a.313.313 0 0 1-.209.484l-72.941 10.411a.313.313 0 0 1-.351-.322l.759-12.326a.313.313 0 0 1 .095-.199l44.62-44.8a.313.313 0 0 0-.265-.531l-40.059 5.717a.313.313 0 0 1-.36-.322l.844-14.81a.313.313 0 0 1 .265-.294l65.849-9.984a.313.313 0 0 1 .351.218l3.973 12.079a.313.313 0 0 1-.076.313L337.929 217.6a.313.313 0 0 0 .265.531l32.891-4.485a.313.313 0 0 1 .294.133zm-97.043 28.226l4.001-67.1a.313.313 0 0 1 .275-.294l21.144-2.958a.313.313 0 0 1 .36.322l-3.963 67.015a.313.313 0 0 1-.275.294l-21.182 3.044a.313.313 0 0 1-.36-.322zm-32.218-62.798c-5.182-.021-10.46.763-15.189 1.594-5.329.939-18.631 3.528-21.333 8.743l-8.856 17.389a.332.332 0 0 0 .456.446c7.784-4.068 48.364-21.003 48.706-1.993a.531.54 1.8 0 1-.578.55c-18.11-1.451-53.419 2.968-54.983 27.554-1.052 16.545 15.256 19.58 27.781 18.139 9.57-1.106 17.782-5.276 24.641-12.507a.379.379 0 0 1 .656.285l-.407 6.78c-.025.398.161.568.559.511l20.461-2.844c.278-.044.425-.205.444-.483l2.4-40.931c.474-8.464-2.339-14.779-8.439-18.944-4.695-3.204-10.445-4.263-16.319-4.287zm-3.502 39.28c2.422-.037 4.488.05 5.893.194a.815.815 0 0 1 .73.833c-.332 11.615-13.795 16.469-23.391 17.152-3.65.265-9.842-.607-10.183-5.291-.747-10.238 16.456-12.727 26.952-12.889zm-115.159 59.965l44.07-87.893q.313-.616 1.005-.721l27.771-4.134q.645-.095.351.493-31.374 62.729-63.004 125.44c-7.092 14.071-17.73 26.065-32.332 31.697q-5.585 2.152-18.479 4.03-13.9 2.039-27.809 3.973-.616.085-.588-.54l1.062-20.338q.028-.521.54-.597 21.011-3.072 28.094-4.02c11.027-1.479 19.257-8.789 25.249-17.854a1.735 1.754 48.5 0 0 .114-1.726l-13.625-27.743a1.147 1.147 0 0 1 0-1.024l12.971-25.771q.351-.683.683 0l13.34 26.728a.332.332 0 0 0 .588 0zm301.123-13.464l27.335-3.859a.379.379 0 0 1 .436.408l-.834 9.794a.379.379 0 0 1-.332.341l-41.766 5.86a.379.379 0 0 1-.436-.398l2.958-44.212a.379.379 0 0 1 .322-.351l41.899-5.869a.379.379 0 0 1 .436.408l-.872 9.766a.379.379 0 0 1-.322.341l-27.676 3.897a.379.379 0 0 0-.322.37l-.199 6.428a.379.379 0 0 0 .427.389l24.092-3.461a.379.379 0 0 1 .427.408l-.616 8.391a.379.379 0 0 1-.322.341l-24.5 3.432a.379.379 0 0 0-.322.37l-.237 6.817a.379.379 0 0 0 .427.389zm-39.566-15.786c-9.5-3.176-22.746 2.304-23.467 13.179-.36 5.367 3.935 8.401 8.969 8.695 7.026.408 13.141-3.015 18.138-7.68q.351-.322.749-.047l9.15 6.362q.379.265.057.597-13.17 13.729-32.37 12.686-9.756-.521-15.379-7.102c-8.126-9.51-3.081-23.524 5.973-30.938 11.823-9.69 29.914-12.535 42.856-3.091q.465.332.057.74l-9.026 8.979a.834.844 37.5 0 1-1.005.142c-1.64-.939-3.072-1.972-4.703-2.522z" fill="#fff"/><path fill="#7c68ab" d="M103.358 241l-12.629 25.335a.465.465 0 0 1-.834 0l-12.857-25.534a.465.465 0 0 1 .417-.673l25.496.199a.465.465 0 0 1 .408.673z"/><path d="M299.511 293.186l-13.549 1.925a.351.351 0 0 1-.398-.37l2.702-44.212a.351.351 0 0 1 .303-.322l11.188-1.631a.351.351 0 0 1 .294.085l21.087 19.712a.351.351 0 0 0 .588-.237l1.432-22.5a.351.351 0 0 1 .303-.322l13.511-2.01a.351.351 0 0 1 .398.37l-2.769 44.288a.351.351 0 0 1-.303.322l-10.43 1.517a.351.351 0 0 1-.294-.085l-21.769-20.452a.351.351 0 0 0-.597.237l-1.394 23.362a.351.351 0 0 1-.303.322zm-64.484-.199l-5.575 9.956a.313.313 0 0 1-.228.152l-15.123 2.086a.313.313 0 0 1-.313-.465l27.544-47.815a.313.313 0 0 1 .228-.152l11.055-1.583a.313.313 0 0 1 .322.161l21.883 40.884a.313.313 0 0 1-.237.465l-14.535 2.039a.313.313 0 0 1-.332-.18l-4.087-8.372a.313.313 0 0 0-.332-.18l-20.044 2.854a.313.313 0 0 0-.228.152zm-47.162-28.415a16.01 16.01 0 0 0-1.554.056l-19.522 1.926a1.925 1.934 9.8 0 0-1.537 1.089l-22.498 47.589c-.158.329-.054.47.313.426l35.659-4.531c13.359-1.716 28.151-10.696 30.019-25.307 1.356-10.581-5.168-18.271-15.38-20.537-2.043-.455-3.876-.691-5.5-.709zm-3.804 12.328c3.546 0 6.914.804 8.915 3.411 4.229 5.537-1.147 13.397-6.267 16.213-1.896 1.049-5.119 1.958-9.67 2.73a318.04 318.04 0 0 1-13.019 1.944c-.721.095-.926-.19-.617-.854l9.965-21.465a1.052 1.052 0 0 1 .711-.57c2.712-.607 6.435-1.409 9.981-1.409z" fill="#fff"/><path d="M258.342 344.405l5.262-6.485 30.902-2.369-18.727 25.74zm42.894-186.377l3.541 3.279 27.557-3.611-15.88-19.683z" paint-order="stroke fill markers" fill="#632669"/><path fill="#5c1f62" d="M246.936 270.82l3.906 7.291a.379.379 0 0 1-.284.559l-8.732 1.138a.379.379 0 0 1-.379-.559l4.826-8.439a.379.379 0 0 1 .664.009z"/><path d="M443.97 296.439c-3.157-.967-8.021-.228-10.78-1.621-4.798-2.427-2.598-8.002.939-10.031q6.409-3.679 14.753-1.517a.996.996 0 0 1 .521 1.593l-1.839 2.247q-.294.36-.711.161-5.272-2.465-10.439.171a1.877 1.887 77 0 0-1.015 1.621q-.047 2.171 2.342 2.427c3.271.351 8.884.133 11.179 2.247 1.441 1.337 1.299 4.162.322 5.85-3.821 6.561-14.203 6.447-20.196 3.992a.521.521 0 0 1-.18-.844l2.494-2.588q.332-.341.749-.123 6.334 3.423 12.297-.284a1.83 1.83 0 0 0-.436-3.3zm-48.774-7.25a10.733 14.867 67.2 0 0-7.409 1.556 10.733 14.867 67.2 0 0-9.546 15.656 10.733 14.867 67.2 0 0 17.865 4.133 10.733 14.867 67.2 0 0 9.544-15.656 10.733 14.867 67.2 0 0-10.454-5.689zm-1.689 3.717a7.244 9.567 64.1 0 1 7.044 3.554 7.244 9.567 64.1 0 1-5.443 10.696 7.244 9.567 64.1 0 1-11.77-2.337 7.244 9.567 64.1 0 1 5.443-10.696 7.244 9.567 64.1 0 1 4.726-1.217zm-45.736 24.212l1.356-20.888a.322.322 0 0 1 .294-.303l4.248-.417a.322.322 0 0 1 .351.341l-1.384 20.954a.322.322 0 0 1-.294.294l-4.229.36a.322.322 0 0 1-.341-.341zm-35.175-15.622c-4.596.015-9.441 1.024-12.137 1.456-.335.057-.515.254-.541.589l-1.252 20.441c-.019.297.117.435.407.409 4.557-.398 8.683-1.002 12.374-1.811 6.04-1.327 12.535-6.315 12.544-12.857.011-6.619-5.487-8.245-11.396-8.226zm-1.563 3.435c2.734-.037 5.368.694 6.957 2.913 2.181 3.044.113 7.13-2.741 9.15-3.135 2.212-6.795 3.217-10.98 3.015-.341-.019-.502-.196-.483-.531l.739-12.894c.019-.259.149-.429.389-.511 1.804-.618 3.992-1.112 6.119-1.141zm-54.597 16.719c-.322 4.352 3.451 5.518 7.14 4.674q6.068-1.375 6.485-7.035.427-5.831.815-11.643.038-.484.521-.559l3.612-.531q.664-.095.645.569c-.228 9.681.635 18.84-9.017 22.025-4.437 1.46-12.307 2.484-14.469-3.015-1.375-3.508-.076-11.767.265-15.967q.038-.484.531-.54l3.726-.379q.588-.066.55.521-.36 5.973-.806 11.88zm-41.491-3.025l-7.358 1.09a.559.559 0 0 1-.635-.607l.247-2.475a.559.559 0 0 1 .484-.503l21.077-3.006a.559.559 0 0 1 .635.607l-.209 2.522a.559.559 0 0 1-.484.503l-7.68 1.024a.559.559 0 0 0-.484.512l-1.062 17.095a.559.559 0 0 1-.493.521l-3.821.436a.559.559 0 0 1-.626-.588l1.043-16.545a.559.559 0 0 0-.635-.588z" fill="#e1cfe4"/><path fill="#803c8f" d="M436.973 319.953l-19.409 14.364-10.42-14.241q-1.451-1.982.948-2.484 10.373-2.171 21.381-3.802 2.807-.417 4.077 1.271 2.039 2.712 3.423 4.892z"/><path fill="#e1cfe4" d="M170.847 328.789c3.347.901 7.604.379 10.458 1.432 4.087 1.508 3.745 5.888 1.166 8.647-4.58 4.864-13.426 4.769-18.925 2.361a.54.55 33 0 1-.18-.872l2.323-2.484q.36-.389.834-.142c3.252 1.716 9.823 2.617 12.402-.721 1.271-1.65.142-3.006-1.631-3.233-3.243-.417-10.193-.095-11.956-3.271-2.105-3.802 2.162-8.04 5.48-9.216q6.514-2.295 12.98.047a.531.54 29.7 0 1 .228.844l-1.944 2.351a.796.787 27.2 0 1-.815.256c-3.935-1.071-7.765-2.001-11.131 1.005a1.754 1.754 0 0 0 .711 2.996z"/><path d="M436.973 319.953L451.3 339.2q.322.436-.209.503l-26.178 3.698a.692.683 67.1 0 1-.645-.265l-6.703-8.818zm-201.055 54.461l15.588 19.285-57.78 77.103c-.645.86-1.207.809-1.688-.152l-63.109-126.246c-.263-.532-.263-1.156 0-1.688l8.344-16.631c.101-.196.289-.33.503-.36l7.595-1.09c.379-.057.657.085.834.427l50.318 100.494a.54.54 0 0 0 .92.085z" fill="#7c68ab"/><path fill="#803c8f" d="M251.506 393.7l-15.588-19.285 22.424-30.009 17.436 16.887z"/></svg>